<?xml version="1.0" encoding="UTF-8" standalone="no"?>
<!-- Created with Inkscape (http://www.inkscape.org/) -->

<svg
   xmlns:dc="http://purl.org/dc/elements/1.1/"
   xmlns:cc="http://creativecommons.org/ns#"
   xmlns:rdf="http://www.w3.org/1999/02/22-rdf-syntax-ns#"
   xmlns:svg="http://www.w3.org/2000/svg"
   xmlns="http://www.w3.org/2000/svg"
   xmlns:sodipodi="http://sodipodi.sourceforge.net/DTD/sodipodi-0.dtd"
   xmlns:inkscape="http://www.inkscape.org/namespaces/inkscape"
   width="256"
   height="256"
   id="svg2"
   version="1.1"
   inkscape:version="0.48.4 r9939"
   sodipodi:docname="icon.svg">
  <defs
     id="defs4">
    <inkscape:path-effect
       effect="spiro"
       id="path-effect3800"
       is_visible="true" />
  </defs>
  <sodipodi:namedview
     id="base"
     pagecolor="#ffffff"
     bordercolor="#666666"
     borderopacity="1.0"
     inkscape:pageopacity="0.0"
     inkscape:pageshadow="2"
     inkscape:zoom="1.4142136"
     inkscape:cx="95.223119"
     inkscape:cy="50.56304"
     inkscape:document-units="px"
     inkscape:current-layer="g3835"
     showgrid="false"
     inkscape:window-width="1169"
     inkscape:window-height="986"
     inkscape:window-x="438"
     inkscape:window-y="65"
     inkscape:window-maximized="0" />
  <metadata
     id="metadata7">
    <rdf:RDF>
      <cc:Work
         rdf:about="">
        <dc:format>image/svg+xml</dc:format>
        <dc:type
           rdf:resource="http://purl.org/dc/dcmitype/StillImage" />
        <dc:title />
      </cc:Work>
    </rdf:RDF>
  </metadata>
  <g
     inkscape:label="Layer 1"
     inkscape:groupmode="layer"
     id="layer1"
     transform="translate(0,-796.36218)">
    <g
       id="g3791"
       transform="matrix(1.0789243,0,0,1.0789243,-12.610325,-73.28585)">
      <path
         sodipodi:nodetypes="csscscc"
         inkscape:connector-curvature="0"
         id="path3007"
         d="m 20.865717,1001.8366 c 8.334893,-2.20707 14.371841,-18.62412 26.614517,-30.86284 6.73826,-6.73611 29.296203,-65.90457 79.144946,-72.55605 40.89741,-5.45707 89.59111,-24.82165 89.59111,-24.82165 0,0 -20.96474,64.17248 -55.5778,66.05645 -42.162,2.29486 -111.550459,26.26159 -126.199368,68.03739 -10.075154,2.4472 -13.573405,-5.8533 -13.573405,-5.8533 z"
         style="fill:#648c0f;fill-opacity:1;stroke:none" />
      <path
         sodipodi:nodetypes="csccccc"
         inkscape:connector-curvature="0"
         id="path3009"
         d="m 239.90607,843.79545 c -6.85034,6.09044 -23.95306,26.73104 -99.54238,26.87353 C 72.689471,870.79655 53.015899,931.50094 46.683539,976.55807 161.28846,989.59881 231.55268,942.31304 239.90607,843.79545 z M 207.96853,880.513 C 177.805,933.63647 146.85389,922.66711 57.518751,965.65227 104.84943,874.74705 134.78519,908.5169 207.96853,880.513 z"
         style="fill:#86c620;fill-opacity:1;stroke:none" />
      <path
         style="fill:none;stroke:#648c0f;stroke-width:7.41479253999999965;stroke-linecap:round;stroke-linejoin:round;stroke-miterlimit:4;stroke-opacity:1;stroke-dasharray:none"
         d="m 238.70134,842.47939 c -18.2532,18.33446 -45.17441,22.78763 -69.95039,25.21435 -21.17399,2.18337 -43.46094,-1.20082 -63.42056,7.70439 -26.482469,10.69174 -43.405475,36.25678 -51.818207,62.72768 -3.404856,10.39249 -5.881042,21.09817 -7.650824,31.91018 -9.172466,8.56664 -13.798002,21.11638 -23.344818,29.10853 -1.871966,1.32308 -5.705848,0.92078 -3.054724,3.95018 2.905371,5.7976 10.223085,8.2217 16.310545,6.1356 3.743512,-10.94572 9.454799,-20.97762 16.310546,-30.31327 44.053574,4.30035 90.592602,3.01665 128.564932,-21.36935 29.95039,-18.90348 50.35804,-53.7989 57.31819,-88.20876 2.12482,-9.89461 3.37953,-19.89375 4.12633,-29.9693 -1.13035,1.03659 -2.26068,2.07318 -3.39102,3.10977 z"
         id="path3842"
         inkscape:connector-curvature="0"
         sodipodi:nodetypes="ccccccccccccc" />
    </g>
    <g
       id="g3835"
       transform="matrix(0.74877671,0,0,0.74853494,32.020147,231.17088)">
      <path
         transform="matrix(0.93523316,0,0,0.93523316,6.7537051,810.86496)"
         d="m 210.35714,121.35714 c 0,44.57727 -36.13702,80.71429 -80.71429,80.71429 -44.577267,0 -80.714284,-36.13702 -80.714284,-80.71429 0,-44.57727 36.137017,-80.714287 80.714284,-80.714287 44.57727,0 80.71429,36.137017 80.71429,80.714287 z"
         sodipodi:ry="80.714287"
         sodipodi:rx="80.714287"
         sodipodi:cy="121.35714"
         sodipodi:cx="129.64285"
         id="path3796"
         style="fill:#f2f2f2;fill-opacity:1;stroke:#353535;stroke-width:19.99520847000000145;stroke-linecap:round;stroke-linejoin:round;stroke-miterlimit:4;stroke-opacity:1;stroke-dasharray:none;stroke-dashoffset:0"
         sodipodi:type="arc" />
      <path
         sodipodi:nodetypes="cc"
         inkscape:connector-curvature="0"
         inkscape:original-d="m 128.26893,916.83929 0,-33.53266"
         inkscape:path-effect="#path-effect3800"
         id="path3798"
         d="m 128.26893,916.83929 0,-33.53266"
         style="fill:none;stroke:#353535;stroke-width:10.68581867;stroke-linecap:round;stroke-linejoin:miter;stroke-miterlimit:4;stroke-opacity:1;stroke-dasharray:none" />
      <path
         sodipodi:type="arc"
         style="fill:none;stroke:#353535;stroke-width:83.36602783;stroke-linecap:round;stroke-linejoin:round;stroke-miterlimit:4;stroke-opacity:1;stroke-dasharray:none;stroke-dashoffset:0"
         id="path3821"
         sodipodi:cx="129.64285"
         sodipodi:cy="121.35714"
         sodipodi:rx="80.714287"
         sodipodi:ry="80.714287"
         d="m 210.35714,121.35714 c 0,44.57727 -36.13702,80.71429 -80.71429,80.71429 -44.577267,0 -80.714284,-36.13702 -80.714284,-80.71429 0,-44.57727 36.137017,-80.714287 80.714284,-80.714287 44.57727,0 80.71429,36.137017 80.71429,80.714287 z"
         transform="matrix(0.12817953,0,0,0.12817953,111.65138,912.37911)" />
      <path
         id="rect3827"
         d="m 113.90625,816.40901 0,9.28125 9.4375,0 0,13.53125 9.3125,0 0,-13.53125 9.4375,0 0,-9.28125 -28.1875,0 z"
         style="fill:#353535;fill-opacity:1;stroke:#353535;stroke-width:10.68581867;stroke-linecap:round;stroke-linejoin:round;stroke-miterlimit:4;stroke-opacity:1;stroke-dashoffset:0"
         inkscape:connector-curvature="0" />
      <path
         inkscape:transform-center-x="51.935794"
         sodipodi:nodetypes="ccccccccc"
         inkscape:transform-center-y="-55.850168"
         inkscape:connector-curvature="0"
         style="fill:#353535;fill-opacity:1;stroke:#353535;stroke-width:10.68581867;stroke-linecap:round;stroke-linejoin:round;stroke-miterlimit:4;stroke-opacity:1;stroke-dashoffset:0"
         d="m 44.14321,854.21884 6.563197,6.56249 3.845063,-3.84508 9.567904,9.56817 6.585278,-6.58458 -9.567911,-9.56817 3.845069,-3.84507 -6.563183,-6.56247 z"
         id="path3833" />
    </g>
  </g>
</svg>
