<?xml version="1.0" encoding="UTF-8" standalone="no"?>
<!-- Created with Inkscape (http://www.inkscape.org/) -->

<svg
   xmlns:dc="http://purl.org/dc/elements/1.1/"
   xmlns:cc="http://creativecommons.org/ns#"
   xmlns:rdf="http://www.w3.org/1999/02/22-rdf-syntax-ns#"
   xmlns:svg="http://www.w3.org/2000/svg"
   xmlns="http://www.w3.org/2000/svg"
   xmlns:xlink="http://www.w3.org/1999/xlink"
   xmlns:sodipodi="http://sodipodi.sourceforge.net/DTD/sodipodi-0.dtd"
   xmlns:inkscape="http://www.inkscape.org/namespaces/inkscape"
   width="256"
   height="256"
   id="svg2"
   version="1.1"
   inkscape:version="0.48.4 r9939"
   sodipodi:docname="icon.svg">
  <defs
     id="defs4">
    <inkscape:path-effect
       effect="spiro"
       id="path-effect3800"
       is_visible="true" />
    <filter
       inkscape:collect="always"
       id="filter3823">
      <feGaussianBlur
         inkscape:collect="always"
         stdDeviation="1.6142857"
         id="feGaussianBlur3825" />
    </filter>
  </defs>
  <sodipodi:namedview
     id="base"
     pagecolor="#ffffff"
     bordercolor="#666666"
     borderopacity="1.0"
     inkscape:pageopacity="0.0"
     inkscape:pageshadow="2"
     inkscape:zoom="1.979899"
     inkscape:cx="155.75336"
     inkscape:cy="205.5223"
     inkscape:document-units="px"
     inkscape:current-layer="layer1"
     showgrid="false"
     inkscape:window-width="1855"
     inkscape:window-height="1056"
     inkscape:window-x="65"
     inkscape:window-y="24"
     inkscape:window-maximized="1" />
  <metadata
     id="metadata7">
    <rdf:RDF>
      <cc:Work
         rdf:about="">
        <dc:format>image/svg+xml</dc:format>
        <dc:type
           rdf:resource="http://purl.org/dc/dcmitype/StillImage" />
        <dc:title></dc:title>
      </cc:Work>
    </rdf:RDF>
  </metadata>
  <g
     inkscape:label="Layer 1"
     inkscape:groupmode="layer"
     id="layer1"
     transform="translate(0,-796.36218)">
    <image
       y="830.98523"
       x="-106.60442"
       id="image2993"
       xlink:href="file:///home/jonah/Projects/FreshbooksTimer/img/icon.png"
       height="69.708412"
       width="69.708412" />
    <image
       width="69.708412"
       height="69.708412"
       xlink:href="file:///home/jonah/Projects/FreshbooksTimer/img/icon.png"
       id="image3014"
       x="-110.02017"
       y="924.93304"
       style="stroke:none" />
    <g
       id="g3791"
       transform="matrix(1.0789243,0,0,1.0789243,-12.610325,-73.28585)">
      <path
         sodipodi:nodetypes="csscscc"
         inkscape:connector-curvature="0"
         id="path3007"
         d="m 17.135845,1003.1064 c 4.401008,2.7506 14.853403,-19.25441 27.506298,-31.9073 6.96404,-6.96407 46.48565,-62.71437 88.570287,-69.59095 42.08463,-6.87657 85.81965,-31.08212 85.81965,-31.08212 0,0 -36.55583,48.64208 -72.34157,50.33653 -50.106237,2.37253 -100.386697,45.10565 -115.526452,88.29524 -10.412745,2.53 -14.028213,-6.0514 -14.028213,-6.0514 z"
         style="fill:#648c0f;fill-opacity:1;stroke:none" />
      <path
         sodipodi:nodetypes="csccccc"
         inkscape:connector-curvature="0"
         id="path3009"
         d="m 243.51564,839.71694 c -7.07987,6.29654 -24.75566,27.63564 -102.87777,27.78295 -69.941797,0.13189 -90.274577,62.89058 -96.819117,109.4725 C 162.26377,990.45444 234.88236,941.56847 243.51564,839.71694 z m -33.00768,37.96011 c -71.37514,68.29246 -71.72595,2.97543 -155.490937,88.02047 70.252857,-90.83574 79.178087,-38.98408 155.490937,-88.02047 z"
         style="fill:#86c620;fill-opacity:1;stroke:none" />
      <path
         inkscape:connector-curvature="0"
         id="path3016"
         d="m 243.51564,839.71694 c -7.07987,6.29654 -24.75566,27.63564 -102.87777,27.78295 -67.061967,0.12646 -88.512147,57.83049 -95.934147,103.6436 -0.0186,0.0188 -0.0414,0.0415 -0.0596,0.0596 -12.652896,12.65289 -23.109647,34.65211 -27.510655,31.90141 0,0 3.619135,8.5802 14.031881,6.0502 3.784254,-10.79547 9.769294,-21.55649 17.393064,-31.67173 C 164.1998,989.13593 234.99808,940.20292 243.51561,839.71696 z"
         style="fill:none;stroke:#353535;stroke-width:3.70739651;stroke-linejoin:round;stroke-miterlimit:4;stroke-opacity:1;stroke-dasharray:none" />
    </g>
    <g
       id="g3835"
       transform="matrix(0.77386618,0,0,0.77386618,28.73701,206.26497)">
      <path
         transform="matrix(0.93523316,0,0,0.93523316,6.7537051,810.86496)"
         d="m 210.35714,121.35714 c 0,44.57727 -36.13702,80.71429 -80.71429,80.71429 -44.577267,0 -80.714284,-36.13702 -80.714284,-80.71429 0,-44.57727 36.137017,-80.714287 80.714284,-80.714287 44.57727,0 80.71429,36.137017 80.71429,80.714287 z"
         sodipodi:ry="80.714287"
         sodipodi:rx="80.714287"
         sodipodi:cy="121.35714"
         sodipodi:cx="129.64285"
         id="path3796"
         style="fill:#e6e6e6;fill-opacity:1;stroke:#353535;stroke-width:11.05361271;stroke-linecap:round;stroke-linejoin:round;stroke-miterlimit:4;stroke-opacity:1;stroke-dasharray:none;stroke-dashoffset:0"
         sodipodi:type="arc" />
      <path
         sodipodi:nodetypes="cc"
         inkscape:connector-curvature="0"
         inkscape:original-d="m 128,915.77588 0,-44.62798"
         inkscape:path-effect="#path-effect3800"
         id="path3798"
         d="m 128,915.77588 0,-44.62798"
         style="fill:none;stroke:#353535;stroke-width:10.33770466;stroke-linecap:round;stroke-linejoin:miter;stroke-miterlimit:4;stroke-opacity:1;stroke-dasharray:none" />
      <path
         sodipodi:type="arc"
         style="fill:none;stroke:#353535;stroke-width:102.89910126;stroke-linecap:round;stroke-linejoin:round;stroke-miterlimit:4;stroke-opacity:1;stroke-dasharray:none;stroke-dashoffset:0;filter:url(#filter3823)"
         id="path3821"
         sodipodi:cx="129.64285"
         sodipodi:cy="121.35714"
         sodipodi:rx="80.714287"
         sodipodi:ry="80.714287"
         d="m 210.35714,121.35714 c 0,44.57727 -36.13702,80.71429 -80.71429,80.71429 -44.577267,0 -80.714284,-36.13702 -80.714284,-80.71429 0,-44.57727 36.137017,-80.714287 80.714284,-80.714287 44.57727,0 80.71429,36.137017 80.71429,80.714287 z"
         transform="matrix(0.10046448,0,0,0.10046448,114.9755,912.17011)" />
      <path
         transform="translate(0,796.36218)"
         id="rect3827"
         d="m 113.90625,28.0625 0,9.28125 9.4375,0 0,13.53125 9.3125,0 0,-13.53125 9.4375,0 0,-9.28125 -28.1875,0 z"
         style="fill:#353535;fill-opacity:1;stroke:#353535;stroke-width:10.33770466;stroke-linecap:round;stroke-linejoin:round;stroke-miterlimit:4;stroke-opacity:1;stroke-dashoffset:0"
         inkscape:connector-curvature="0" />
      <path
         inkscape:transform-center-x="64.046917"
         sodipodi:nodetypes="ccccccccc"
         inkscape:transform-center-y="-64.046918"
         inkscape:connector-curvature="0"
         style="fill:#353535;fill-opacity:1;stroke:#353535;stroke-width:10.33770466;stroke-linecap:round;stroke-linejoin:round;stroke-miterlimit:4;stroke-opacity:1;stroke-dashoffset:0"
         d="m 50.672646,860.63579 6.562835,6.56284 3.84507,-3.84507 9.568038,9.56803 6.584932,-6.58493 -9.568039,-9.56804 3.84507,-3.84507 -6.562834,-6.56283 z"
         id="path3833" />
    </g>
  </g>
</svg>
